<mxfile host="app.diagrams.net" agent="Mozilla/5.0 (Macintosh; Intel Mac OS X 10.15; rv:134.0) Gecko/20100101 Firefox/134.0" version="26.0.10">
  <diagram name="Page-1" id="d1A-6lVqTsTfdlhziJdx">
    <mxGraphModel dx="1242" dy="795" grid="1" gridSize="10" guides="1" tooltips="1" connect="1" arrows="1" fold="1" page="0" pageScale="1" pageWidth="850" pageHeight="1100" math="0" shadow="0">
      <root>
        <mxCell id="0" />
        <mxCell id="1" parent="0" />
        <mxCell id="lcSuU7QwQW6aeiAl-L5z-1" value="Users" style="whiteSpace=wrap;strokeWidth=2;" vertex="1" parent="1">
          <mxGeometry x="109" y="856" width="937" height="104" as="geometry" />
        </mxCell>
        <mxCell id="lcSuU7QwQW6aeiAl-L5z-2" value="" style="whiteSpace=wrap;strokeWidth=2;" vertex="1" parent="1">
          <mxGeometry x="20" y="678" width="1135" height="104" as="geometry" />
        </mxCell>
        <mxCell id="lcSuU7QwQW6aeiAl-L5z-3" value="Notification System" style="whiteSpace=wrap;strokeWidth=2;" vertex="1" parent="1">
          <mxGeometry x="32" y="349" width="1042" height="256" as="geometry" />
        </mxCell>
        <mxCell id="lcSuU7QwQW6aeiAl-L5z-4" value="Event Sources" style="whiteSpace=wrap;strokeWidth=2;" vertex="1" parent="1">
          <mxGeometry x="86" y="20" width="683" height="256" as="geometry" />
        </mxCell>
        <mxCell id="lcSuU7QwQW6aeiAl-L5z-5" value="Anomaly Detection System" style="whiteSpace=wrap;strokeWidth=2;" vertex="1" parent="1">
          <mxGeometry x="125" y="45" width="251" height="54" as="geometry" />
        </mxCell>
        <mxCell id="lcSuU7QwQW6aeiAl-L5z-6" value="Queue: anomaly_alerts_queue" style="whiteSpace=wrap;strokeWidth=2;" vertex="1" parent="1">
          <mxGeometry x="121" y="173" width="260" height="78" as="geometry" />
        </mxCell>
        <mxCell id="lcSuU7QwQW6aeiAl-L5z-7" value="Maintenance Scheduler" style="whiteSpace=wrap;strokeWidth=2;" vertex="1" parent="1">
          <mxGeometry x="469" y="45" width="226" height="54" as="geometry" />
        </mxCell>
        <mxCell id="lcSuU7QwQW6aeiAl-L5z-8" value="Queue: maintenance_notifications_queue" style="whiteSpace=wrap;strokeWidth=2;" vertex="1" parent="1">
          <mxGeometry x="431" y="173" width="303" height="78" as="geometry" />
        </mxCell>
        <mxCell id="lcSuU7QwQW6aeiAl-L5z-9" value="Celery Worker" style="whiteSpace=wrap;strokeWidth=2;" vertex="1" parent="1">
          <mxGeometry x="336" y="374" width="161" height="54" as="geometry" />
        </mxCell>
        <mxCell id="lcSuU7QwQW6aeiAl-L5z-10" value="PostgreSQL: Notifications Database" style="whiteSpace=wrap;strokeWidth=2;" vertex="1" parent="1">
          <mxGeometry x="67" y="502" width="260" height="78" as="geometry" />
        </mxCell>
        <mxCell id="lcSuU7QwQW6aeiAl-L5z-11" value="Notification Delivery System" style="whiteSpace=wrap;strokeWidth=2;" vertex="1" parent="1">
          <mxGeometry x="441" y="502" width="260" height="78" as="geometry" />
        </mxCell>
        <mxCell id="lcSuU7QwQW6aeiAl-L5z-12" value="FCM: Push Notifications" style="whiteSpace=wrap;strokeWidth=2;" vertex="1" parent="1">
          <mxGeometry x="55" y="703" width="229" height="54" as="geometry" />
        </mxCell>
        <mxCell id="lcSuU7QwQW6aeiAl-L5z-13" value="Twilio: SMS Gateway" style="whiteSpace=wrap;strokeWidth=2;" vertex="1" parent="1">
          <mxGeometry x="334" y="703" width="206" height="54" as="geometry" />
        </mxCell>
        <mxCell id="lcSuU7QwQW6aeiAl-L5z-14" value="SendGrid: Email Service" style="whiteSpace=wrap;strokeWidth=2;" vertex="1" parent="1">
          <mxGeometry x="590" y="703" width="231" height="54" as="geometry" />
        </mxCell>
        <mxCell id="lcSuU7QwQW6aeiAl-L5z-15" value="WebSockets: In-App Alerts" style="whiteSpace=wrap;strokeWidth=2;" vertex="1" parent="1">
          <mxGeometry x="872" y="703" width="248" height="54" as="geometry" />
        </mxCell>
        <mxCell id="lcSuU7QwQW6aeiAl-L5z-16" value="User" style="whiteSpace=wrap;strokeWidth=2;" vertex="1" parent="1">
          <mxGeometry x="646" y="881" width="92" height="54" as="geometry" />
        </mxCell>
        <mxCell id="lcSuU7QwQW6aeiAl-L5z-17" value="Triggers Event" style="curved=1;startArrow=none;endArrow=block;exitX=0.5;exitY=1;entryX=0.5;entryY=-0.01;rounded=0;" edge="1" parent="1" source="lcSuU7QwQW6aeiAl-L5z-5" target="lcSuU7QwQW6aeiAl-L5z-6">
          <mxGeometry relative="1" as="geometry">
            <Array as="points" />
          </mxGeometry>
        </mxCell>
        <mxCell id="lcSuU7QwQW6aeiAl-L5z-18" value="Triggers Event" style="curved=1;startArrow=none;endArrow=block;exitX=0.5;exitY=1;entryX=0.5;entryY=-0.01;rounded=0;" edge="1" parent="1" source="lcSuU7QwQW6aeiAl-L5z-7" target="lcSuU7QwQW6aeiAl-L5z-8">
          <mxGeometry relative="1" as="geometry">
            <Array as="points" />
          </mxGeometry>
        </mxCell>
        <mxCell id="lcSuU7QwQW6aeiAl-L5z-19" value="Fetch Event" style="curved=1;startArrow=none;endArrow=block;exitX=0.5;exitY=0.99;entryX=0;entryY=0.03;rounded=0;" edge="1" parent="1" source="lcSuU7QwQW6aeiAl-L5z-6" target="lcSuU7QwQW6aeiAl-L5z-9">
          <mxGeometry relative="1" as="geometry">
            <Array as="points">
              <mxPoint x="251" y="349" />
            </Array>
          </mxGeometry>
        </mxCell>
        <mxCell id="lcSuU7QwQW6aeiAl-L5z-20" value="Fetch Event" style="curved=1;startArrow=none;endArrow=block;exitX=0.5;exitY=0.99;entryX=1;entryY=0.03;rounded=0;" edge="1" parent="1" source="lcSuU7QwQW6aeiAl-L5z-8" target="lcSuU7QwQW6aeiAl-L5z-9">
          <mxGeometry relative="1" as="geometry">
            <Array as="points">
              <mxPoint x="582" y="349" />
            </Array>
          </mxGeometry>
        </mxCell>
        <mxCell id="lcSuU7QwQW6aeiAl-L5z-21" value="Store Notification" style="curved=1;startArrow=none;endArrow=block;exitX=0;exitY=0.93;entryX=0.5;entryY=-0.01;rounded=0;" edge="1" parent="1" source="lcSuU7QwQW6aeiAl-L5z-9" target="lcSuU7QwQW6aeiAl-L5z-10">
          <mxGeometry relative="1" as="geometry">
            <Array as="points">
              <mxPoint x="197" y="465" />
            </Array>
          </mxGeometry>
        </mxCell>
        <mxCell id="lcSuU7QwQW6aeiAl-L5z-22" value="Send Alert" style="curved=1;startArrow=none;endArrow=block;exitX=0.91;exitY=1;entryX=0.5;entryY=-0.01;rounded=0;" edge="1" parent="1" source="lcSuU7QwQW6aeiAl-L5z-9" target="lcSuU7QwQW6aeiAl-L5z-11">
          <mxGeometry relative="1" as="geometry">
            <Array as="points">
              <mxPoint x="571" y="465" />
            </Array>
          </mxGeometry>
        </mxCell>
        <mxCell id="lcSuU7QwQW6aeiAl-L5z-23" value="Push" style="curved=1;startArrow=none;endArrow=block;exitX=0;exitY=0.76;entryX=0.5;entryY=0;rounded=0;" edge="1" parent="1" source="lcSuU7QwQW6aeiAl-L5z-11" target="lcSuU7QwQW6aeiAl-L5z-12">
          <mxGeometry relative="1" as="geometry">
            <Array as="points">
              <mxPoint x="169" y="605" />
            </Array>
          </mxGeometry>
        </mxCell>
        <mxCell id="lcSuU7QwQW6aeiAl-L5z-24" value="SMS" style="curved=1;startArrow=none;endArrow=block;exitX=0.19;exitY=0.99;entryX=0.5;entryY=0;rounded=0;" edge="1" parent="1" source="lcSuU7QwQW6aeiAl-L5z-11" target="lcSuU7QwQW6aeiAl-L5z-13">
          <mxGeometry relative="1" as="geometry">
            <Array as="points">
              <mxPoint x="437" y="605" />
            </Array>
          </mxGeometry>
        </mxCell>
        <mxCell id="lcSuU7QwQW6aeiAl-L5z-25" value="Email" style="curved=1;startArrow=none;endArrow=block;exitX=0.82;exitY=0.99;entryX=0.5;entryY=0;rounded=0;" edge="1" parent="1" source="lcSuU7QwQW6aeiAl-L5z-11" target="lcSuU7QwQW6aeiAl-L5z-14">
          <mxGeometry relative="1" as="geometry">
            <Array as="points">
              <mxPoint x="706" y="605" />
            </Array>
          </mxGeometry>
        </mxCell>
        <mxCell id="lcSuU7QwQW6aeiAl-L5z-26" value="In-App" style="curved=1;startArrow=none;endArrow=block;exitX=1;exitY=0.75;entryX=0.5;entryY=0;rounded=0;" edge="1" parent="1" source="lcSuU7QwQW6aeiAl-L5z-11" target="lcSuU7QwQW6aeiAl-L5z-15">
          <mxGeometry relative="1" as="geometry">
            <Array as="points">
              <mxPoint x="996" y="605" />
            </Array>
          </mxGeometry>
        </mxCell>
        <mxCell id="lcSuU7QwQW6aeiAl-L5z-27" value="Receives Notification" style="curved=1;startArrow=none;endArrow=block;exitX=0.5;exitY=1;entryX=0;entryY=0.41;rounded=0;" edge="1" parent="1" source="lcSuU7QwQW6aeiAl-L5z-12" target="lcSuU7QwQW6aeiAl-L5z-16">
          <mxGeometry relative="1" as="geometry">
            <Array as="points">
              <mxPoint x="169" y="856" />
            </Array>
          </mxGeometry>
        </mxCell>
        <mxCell id="lcSuU7QwQW6aeiAl-L5z-28" value="Receives SMS" style="curved=1;startArrow=none;endArrow=block;exitX=0.5;exitY=1;entryX=0;entryY=0.32;rounded=0;" edge="1" parent="1" source="lcSuU7QwQW6aeiAl-L5z-13" target="lcSuU7QwQW6aeiAl-L5z-16">
          <mxGeometry relative="1" as="geometry">
            <Array as="points">
              <mxPoint x="437" y="856" />
            </Array>
          </mxGeometry>
        </mxCell>
        <mxCell id="lcSuU7QwQW6aeiAl-L5z-29" value="Receives Email" style="curved=1;startArrow=none;endArrow=block;exitX=0.5;exitY=1;entryX=0.58;entryY=-0.01;rounded=0;" edge="1" parent="1" source="lcSuU7QwQW6aeiAl-L5z-14" target="lcSuU7QwQW6aeiAl-L5z-16">
          <mxGeometry relative="1" as="geometry">
            <Array as="points">
              <mxPoint x="706" y="856" />
            </Array>
          </mxGeometry>
        </mxCell>
        <mxCell id="lcSuU7QwQW6aeiAl-L5z-30" value="Sees In-App Alert" style="curved=1;startArrow=none;endArrow=block;exitX=0.5;exitY=1;entryX=0.99;entryY=0.35;rounded=0;" edge="1" parent="1" source="lcSuU7QwQW6aeiAl-L5z-15" target="lcSuU7QwQW6aeiAl-L5z-16">
          <mxGeometry relative="1" as="geometry">
            <Array as="points">
              <mxPoint x="996" y="856" />
            </Array>
          </mxGeometry>
        </mxCell>
        <mxCell id="lcSuU7QwQW6aeiAl-L5z-31" value="Delivery Channels" style="text;html=1;align=center;verticalAlign=middle;resizable=0;points=[];autosize=1;strokeColor=none;fillColor=none;" vertex="1" parent="1">
          <mxGeometry x="500" y="673" width="120" height="30" as="geometry" />
        </mxCell>
      </root>
    </mxGraphModel>
  </diagram>
</mxfile>
